<svg width="1440" height="1025" viewBox="0 0 1440 1025" fill="none" xmlns="http://www.w3.org/2000/svg">
<rect width="1440" height="1026" fill="url(#paint0_linear_217_2)"/>
<path d="M3.98326 858.31L0 857.5V1025H563.5C563.5 1025 546 1013 540 999.5C534 986 506 970 473.5 958.5C441 947 415.5 940.5 365.5 934.5C315.5 928.5 173 929 127 917C117.059 914.407 108.239 910.716 100.519 906.523C69.0345 889.422 39.0939 865.451 3.98326 858.31Z" fill="url(#paint1_linear_217_2)"/>
<path d="M121.194 709.251C118.35 741.169 103.976 860.057 98.1505 907.884C96.8433 918.615 105.227 928 116.038 928H275.793C285.205 928 292.589 919.934 291.75 910.56C287.585 863.996 276.589 738.32 276.589 709.251C276.589 679.649 273.602 557.188 272.56 515.348C272.353 507.034 266.462 500.154 258.198 499.225C246.619 497.924 227.646 496.479 200.485 496.479C173.344 496.479 154.379 497.922 142.797 499.222C134.521 500.152 128.626 507.056 128.414 515.381C127.367 556.633 124.145 676.129 121.194 709.251Z" fill="url(#paint2_linear_217_2)"/>
<path d="M152.503 499.268L154.885 456.131C153.945 456.07 153.05 456.01 152.205 455.953C149.315 455.755 148.434 452.016 150.906 450.506L203 418.7L202.593 418.619C200.817 418.264 200.31 415.968 201.771 414.899C202.503 414.364 203.497 414.364 204.228 414.899C205.69 415.968 205.183 418.264 203.407 418.619L203 418.7L255.921 450.301C258.452 451.813 257.522 455.659 254.577 455.816C253.202 455.889 251.706 455.967 250.105 456.048L253.5 499.268C253.5 499.268 233.618 496.583 203 496.583C172.381 496.583 152.503 499.268 152.503 499.268Z" fill="url(#paint3_linear_217_2)"/>
<path d="M252.708 565.043L252.3 528.417C252.29 527.494 251.293 526.921 250.49 527.376C248.762 528.357 247.807 530.292 248.08 532.26L249.551 542.864L249.045 556.058L249.711 568.76C249.771 569.899 251.386 570.066 251.677 568.962L252.708 565.043Z" fill="url(#paint4_linear_217_2)"/>
<path d="M252.983 658.503L251.238 657.951C250.336 657.666 249.485 658.514 249.768 659.418L251.02 671.137L250.514 676.95L251.004 687.77C251.014 687.989 251.096 688.198 251.236 688.366L253.354 690.896L253.354 659.01C253.354 658.778 253.204 658.573 252.983 658.503Z" fill="url(#paint5_linear_217_2)"/>
<path d="M259.88 816.066L259.472 779.441C259.462 778.518 258.465 777.944 257.662 778.4C255.934 779.38 254.979 781.315 255.252 783.283L256.723 793.888L256.217 807.081L256.883 819.783C256.943 820.923 258.558 821.089 258.849 819.985L259.88 816.066Z" fill="url(#paint6_linear_217_2)"/>
<path d="M125.178 621.194L128.764 510.823C128.764 510.823 154.663 569.395 176.578 687.337C198.493 805.278 203.791 835.37 203.791 835.37L114.42 852.295L125.178 621.194Z" fill="url(#paint7_linear_217_2)"/>
<path d="M538.905 999.164L548.145 1013.83C552.723 1021.09 560.709 1025.5 569.296 1025.5H1376.5L1182.53 977.426L1082.07 957.058C1070.62 954.736 1058.76 955.405 1047.64 959.001L980.244 980.795C973.559 982.957 966.414 983.273 959.563 981.709L906.573 969.612C888.9 965.577 870.718 964.235 852.644 965.631L764.76 972.422L696.336 984.099L682.92 978.351C677.908 976.204 676.306 969.88 679.692 965.606C682.011 962.677 685.895 961.479 689.461 962.593L701.343 966.305V960.811C701.343 952.591 695.775 945.416 687.812 943.375C682.659 942.054 677.184 943.177 672.966 946.42L663.668 953.57C655.98 959.481 653.069 969.729 656.503 978.799L658.509 984.099L631.728 978.505C624.807 977.059 617.664 977.04 610.736 978.449L592.159 982.226C589.795 982.706 587.341 982.081 585.495 980.527L581.712 977.343C579.405 975.401 578.604 972.199 579.724 969.399C581.201 965.709 585.166 963.666 589.028 964.605L602.88 967.973L600.864 953.866C599.683 945.602 590.634 941.039 583.287 945.003L563.384 955.74L573.926 929.184C576.042 923.856 580.568 919.854 586.114 918.408L590.707 917.21C598.201 915.256 606.163 917.586 611.422 923.272L630.138 943.507L632.806 932.573C634.715 924.751 634.956 916.615 633.516 908.693C631.404 897.083 623.663 887.282 612.86 882.537L612.149 882.224C600.223 876.987 586.641 877.025 574.744 882.33L569.428 884.701C561.427 888.269 554.356 893.634 548.765 900.379L539.356 911.73C530.196 922.781 526.011 937.128 527.792 951.371L531.009 977.079C531.991 984.93 534.687 992.47 538.905 999.164Z" fill="url(#paint8_linear_217_2)"/>
<defs>
<linearGradient id="paint0_linear_217_2" x1="398.5" y1="-57" x2="720" y2="1026" gradientUnits="userSpaceOnUse">
<stop stop-color="#122D8B" stop-opacity="0.79"/>
<stop offset="0.265535" stop-color="#384A89" stop-opacity="0.741667"/>
<stop offset="0.602028" stop-color="#808AAD" stop-opacity="0.408333"/>
<stop offset="1" stop-color="#D9D9D9" stop-opacity="0"/>
</linearGradient>
<linearGradient id="paint1_linear_217_2" x1="572" y1="893" x2="-227.5" y2="981.5" gradientUnits="userSpaceOnUse">
<stop offset="0.0270317" stop-color="#BABABA"/>
<stop offset="0.507889" stop-color="#E6E6E6" stop-opacity="0.602774"/>
<stop offset="0.891103" stop-color="white" stop-opacity="0"/>
</linearGradient>
<linearGradient id="paint2_linear_217_2" x1="415.249" y1="616.412" x2="63.02" y2="884.569" gradientUnits="userSpaceOnUse">
<stop offset="0.032829" stop-color="#FFAF96"/>
<stop offset="0.389659" stop-color="#FFD7CA" stop-opacity="0.817743"/>
<stop offset="0.875352" stop-color="#F3F3F3" stop-opacity="0"/>
</linearGradient>
<linearGradient id="paint3_linear_217_2" x1="282.07" y1="463.684" x2="121.962" y2="507.848" gradientUnits="userSpaceOnUse">
<stop offset="0.140429" stop-color="#FAFD70" stop-opacity="0.66"/>
<stop offset="0.46395" stop-color="#E3E3E1" stop-opacity="0.566557"/>
<stop offset="1" stop-color="white" stop-opacity="0"/>
</linearGradient>
<linearGradient id="paint4_linear_217_2" x1="278.726" y1="528.567" x2="238.467" y2="567.385" gradientUnits="userSpaceOnUse">
<stop stop-color="#474747"/>
<stop offset="1" stop-color="#999999" stop-opacity="0"/>
</linearGradient>
<linearGradient id="paint5_linear_217_2" x1="280.195" y1="656.842" x2="239.936" y2="695.66" gradientUnits="userSpaceOnUse">
<stop stop-color="#474747"/>
<stop offset="1" stop-color="#999999" stop-opacity="0"/>
</linearGradient>
<linearGradient id="paint6_linear_217_2" x1="314.043" y1="794.918" x2="245.639" y2="818.408" gradientUnits="userSpaceOnUse">
<stop stop-color="#474747"/>
<stop offset="1" stop-color="#999999" stop-opacity="0"/>
</linearGradient>
<linearGradient id="paint7_linear_217_2" x1="203.673" y1="628.366" x2="-52.6096" y2="734.924" gradientUnits="userSpaceOnUse">
<stop offset="0.0745869" stop-color="#3F3F3F" stop-opacity="0.16"/>
<stop offset="0.389291" stop-color="#D9D9D9" stop-opacity="0"/>
</linearGradient>
<linearGradient id="paint8_linear_217_2" x1="382.59" y1="936.278" x2="1486.26" y2="998.608" gradientUnits="userSpaceOnUse">
<stop offset="0.0279308" stop-color="#74C8F7"/>
<stop offset="0.407438" stop-color="#9ADBFF" stop-opacity="0.54375"/>
<stop offset="1" stop-color="#9ADBFF" stop-opacity="0"/>
</linearGradient>
</defs>
</svg>
