<svg width="328" height="316" viewBox="0 0 328 316" fill="none" xmlns="http://www.w3.org/2000/svg">
<path d="M35.8213 269.829L0.355562 155.666C0.355562 155.666 63.6992 211.446 147.91 242.853C178.101 254.113 206.966 265.288 231.577 274.991C232.044 265.006 233.311 250.028 236.558 230.844C236.342 230.721 236.126 230.598 235.909 230.475C188.377 203.598 130.354 205.251 130.354 205.251C130.354 205.251 156.289 148.483 194.814 105.361C233.339 62.2386 311 40.024 311 40.024L301.475 31.1785C295.247 25.3946 288.079 20.1754 279.584 19.8823C276.197 19.7655 272.267 20.0526 267.983 21.1262C254.064 24.6142 232.508 14.0523 232.508 14.0523C232.508 14.0523 251.116 18.4596 277.477 4.92522C303.838 -8.6092 327.946 17.0767 327.946 17.0767C327.946 17.0767 284.473 67.5636 256.546 151.772C246.303 182.658 240.191 209.383 236.558 230.844C283.648 257.786 306.024 305.005 306.024 305.005C306.024 305.005 275.613 292.353 231.577 274.991C231.142 284.292 231.402 289.26 231.402 289.26L303.889 315.714C303.889 315.714 217.953 310.409 146.334 296.127L41.8697 275.296C38.995 274.723 36.6909 272.629 35.8213 269.829Z" fill="white"/>
</svg>
